<svg width="46" height="70" viewBox="0 0 46 70" fill="none" xmlns="http://www.w3.org/2000/svg">
<path d="M25.4912 23.4569L25.3043 7.71624H27.1738C27.1738 7.71624 26.9869 12.1318 27.7352 23.8412C37.8324 26.1438 45.4979 35.1663 45.4979 46.3009C45.4979 54.5547 41.1976 61.6572 35.027 65.6885C34.8401 65.4963 34.6532 65.1128 34.4655 64.9206C27.7352 56.0903 26.0526 43.0375 25.678 31.7115L28.4826 32.2872C30.3529 44.7644 35.9621 53.0191 40.6362 58.2016C42.6933 55.3225 44.0022 52.0591 44.0022 48.4122C44.0022 44.1888 42.3196 40.5419 39.7019 37.4706C37.0841 34.3993 33.3444 32.095 28.8572 30.9437C26.9869 30.3681 24.9306 30.1759 22.8734 30.1759C20.8171 30.1759 18.9468 30.3681 16.8905 30.9437C8.10217 33.2472 1.74469 40.1575 1.74469 48.4122C1.74469 52.0591 3.05356 55.3225 5.11071 58.2016C9.5979 53.0191 15.2079 44.7644 17.0765 32.2872C18.0117 32.095 18.9468 32.095 20.068 31.7115C19.5083 43.0375 18.0117 56.0903 11.2805 64.9206V64.7285C11.0936 65.1128 10.7191 65.4963 10.533 65.6885C4.17557 61.6572 0.248962 54.5547 0.248962 46.3C0.248962 35.1671 7.72844 26.1447 18.0117 23.8404C18.5731 12.1318 18.5731 7.71624 18.5731 7.71624H20.4426L20.2557 23.4569C20.8171 23.2656 21.3777 23.2656 21.7514 23.2656V0.0380859H23.8086V23.2656C24.37 23.2656 24.9306 23.2656 25.4912 23.4569ZM23.9954 31.7115C24.1823 42.6531 24.9306 56.2816 28.4826 65.4963C28.9056 66.5568 29.4056 67.5835 29.9784 68.5676C27.7352 69.1432 25.3043 69.7197 23.0603 69.7197C20.6303 69.7197 18.1994 69.1432 16.1422 68.5676C16.7037 67.4163 17.2642 66.2641 17.638 65.1128C21.004 55.899 21.9383 42.461 21.9383 31.5194H23.0611C23.2472 31.7115 23.6217 31.7115 23.9954 31.7115Z" fill="#2C3B89"/>
</svg>
