<svg width="59" height="60" viewBox="0 0 59 60" fill="none" xmlns="http://www.w3.org/2000/svg">
<path d="M43.8437 2.76741C43.5528 2.5668 43.2619 2.4665 42.971 2.26589C42.1953 1.86466 41.3227 1.36314 40.45 0.961914C32.79 5.47566 25.227 9.98941 17.6639 14.5032C14.2702 12.4971 10.9735 10.4909 7.57986 8.48483C6.80417 9.28727 6.22239 10.19 5.54366 11.0928C9.61606 13.5001 13.5915 15.9074 17.6639 18.3148C26.3905 13.1992 35.1171 7.9833 43.8437 2.76741ZM49.2735 7.08055C48.4978 6.27811 47.6252 5.47566 46.6556 4.77352C45.7829 5.27505 44.8133 5.87689 43.9406 6.37841C35.1171 11.5943 26.3905 16.9105 17.6639 22.1264C13.0097 19.3178 8.45252 16.6096 3.79834 13.801C3.21657 14.7038 2.82872 15.7068 2.34391 16.8102C7.38594 19.8194 12.5249 22.9288 17.6639 25.938C28.2328 19.6187 38.8016 13.2995 49.2735 7.08055ZM53.4429 12.1961C52.8611 11.2934 52.1824 10.3906 51.5037 9.48789C40.2561 16.3087 28.9115 23.0291 17.6639 29.7496C12.234 26.5398 6.80417 23.2297 1.27733 20.02C0.986443 21.023 0.695557 22.2267 0.501633 23.33C6.22239 26.7404 11.9432 30.1508 17.6639 33.5612C29.5902 26.4395 41.5166 19.3178 53.4429 12.1961ZM57.8062 23.631C57.3214 20.6218 56.3518 17.7129 54.9943 15.0047C42.5832 22.5276 30.0751 29.9502 17.6639 37.3728C11.7492 33.8621 5.93151 30.3514 0.0168229 26.8407C0.0168229 27.3423 -0.0801392 27.8438 -0.0801392 28.3453V29.3484C-0.0801392 30.1508 -0.0801392 30.9533 0.0168229 31.7557C0.307709 34.8652 1.08341 37.8744 2.24695 40.7832C3.50746 43.7924 5.25277 46.6009 7.38594 49.1086C12.7189 55.3275 20.4758 58.9385 28.5237 59.1391H29.4933C32.5961 59.1391 35.6989 58.5373 38.6077 57.4339C43.2619 55.7287 47.5282 52.8199 50.8249 48.908C52.5702 46.9019 54.0247 44.5948 55.1882 42.2878C56.3518 39.8805 57.2244 37.2725 57.7092 34.5643C58.291 30.9533 58.388 27.242 57.8062 23.631Z" fill="#299D30"/>
</svg>
