<svg width="18" height="17" viewBox="0 0 18 17" fill="none" xmlns="http://www.w3.org/2000/svg">
<path d="M10.5804 4.08493C11.3696 4.2345 12.0938 4.6086 12.659 5.1587C13.2243 5.70879 13.6044 6.40947 13.7501 7.16979M10.5804 1.00007C12.216 1.16571 13.7438 1.86291 14.9111 2.97637C16.0784 4.08984 16.8153 5.55287 17 7.12351M17 12.522V14.8357C17 15.2447 16.8309 15.637 16.5299 15.9263C16.229 16.2156 15.8207 16.3781 15.3951 16.3781H15.2426C12.7734 16.1202 10.4014 15.3093 8.31747 14.0105C6.37893 12.826 4.7352 11.2462 3.50275 9.38317C2.1337 7.36909 1.27865 5.07289 1.00712 2.68132C0.987243 2.4792 1.00908 2.27531 1.07137 2.08132C1.13366 1.88733 1.23519 1.70707 1.37013 1.55087C1.50507 1.39467 1.67076 1.26561 1.85771 1.1711C2.04466 1.07658 2.24919 1.01846 2.45956 1.00007H5.01136C5.4008 0.996391 5.77834 1.12893 6.07362 1.37298C6.3689 1.61704 6.56176 1.95595 6.61627 2.32656C6.71894 3.06678 6.90735 3.79366 7.17798 4.49367C7.28595 4.76971 7.30931 5.0697 7.24531 5.35811C7.18131 5.64652 7.03263 5.91125 6.81688 6.12093L5.79776 7.10038C6.9401 9.03114 8.6035 10.6298 10.6125 11.7277L11.6316 10.7482C11.8498 10.5409 12.1252 10.398 12.4253 10.3365C12.7254 10.275 13.0376 10.2974 13.3248 10.4012C14.0531 10.6613 14.8095 10.8423 15.5797 10.941C15.9695 10.9939 16.3255 11.1826 16.5799 11.4712C16.8344 11.7599 16.9696 12.1284 16.9599 12.5066L17 12.522Z" stroke="white" stroke-linecap="round" stroke-linejoin="round"/>
</svg>
