<svg width="26" height="25" viewBox="0 0 26 25" fill="none" xmlns="http://www.w3.org/2000/svg">
<path d="M15.173 6.12475C16.2582 6.33577 17.254 6.8636 18.0312 7.63973C18.8084 8.41586 19.331 9.40444 19.5313 10.4772M15.173 1.77232C17.422 2.00601 19.5227 2.98969 21.1278 4.56068C22.7328 6.13167 23.7461 8.19586 24 10.4119M24 18.0286V21.293C24 21.8701 23.7675 22.4237 23.3537 22.8318C22.9398 23.2399 22.3785 23.4692 21.7933 23.4692H21.5836C18.1884 23.1053 14.927 21.9612 12.0615 20.1287C9.39603 18.4575 7.13589 16.2286 5.44128 13.6C3.55884 10.7584 2.38314 7.51866 2.00979 4.14439C1.98246 3.85923 2.01248 3.57155 2.09813 3.29785C2.18378 3.02415 2.32338 2.76982 2.50893 2.54944C2.69447 2.32906 2.9223 2.14697 3.17936 2.01362C3.43641 1.88026 3.71764 1.79826 4.0069 1.77232H7.51562C8.05109 1.76713 8.57022 1.95412 8.97622 2.29846C9.38223 2.64279 9.64742 3.12097 9.72237 3.64387C9.86355 4.68824 10.1226 5.7138 10.4947 6.70145C10.6432 7.0909 10.6753 7.51417 10.5873 7.92108C10.4993 8.328 10.2949 8.70151 9.99821 8.99735L8.59693 10.3792C10.1676 13.1034 12.4548 15.3589 15.2172 16.9079L16.6184 15.526C16.9184 15.2334 17.2972 15.0318 17.7098 14.945C18.1224 14.8583 18.5516 14.8899 18.9466 15.0363C19.9481 15.4033 20.988 15.6588 22.047 15.798C22.583 15.8726 23.0725 16.1388 23.4224 16.5461C23.7723 16.9533 23.9583 17.4732 23.9448 18.0069L24 18.0286Z" stroke="url(#paint0_linear)" stroke-width="3" stroke-linecap="round" stroke-linejoin="round"/>
<defs>
<linearGradient id="paint0_linear" x1="12.4341" y1="-5.78297" x2="38.9212" y2="15.043" gradientUnits="userSpaceOnUse">
<stop stop-color="#74B5B9"/>
<stop offset="0.996946" stop-color="#14D9B5" stop-opacity="0.87"/>
</linearGradient>
</defs>
</svg>
