<svg width="96" height="37" viewBox="0 0 96 37" fill="none" xmlns="http://www.w3.org/2000/svg">
<path d="M29.1586 0.620117L27.5327 5.26602H5.01997L6.64587 0.620117H29.1586ZM26.7197 7.5895L25.0928 12.2365H2.59919L4.20502 7.5895H26.7197ZM1.78624 14.5798H24.2779L22.652 19.2257H0.160339L1.78624 14.5798Z" fill="#009FDF"/>
<path d="M48.006 21.0892C49.0367 21.4824 50.0092 22.1673 50.5251 22.6232C52.1109 24.0139 52.8254 25.8177 52.8254 28.2029C52.8254 32.1032 50.8623 34.9035 47.6286 35.7945C46.637 36.0851 45.6253 36.1887 43.7013 36.1887H33.9229V7.68896H42.5712C44.3557 7.68896 45.5661 7.79353 46.637 8.08318C49.7704 8.97514 51.8338 11.2359 51.8338 14.8455C51.8338 16.7737 51.1795 18.3924 50.1076 19.4705C49.6319 19.9473 48.9775 20.5496 48.006 20.9846V21.0892ZM39.3375 23.993V31.48H43.0861C44.2172 31.48 45.2289 31.3765 45.9826 30.6508C46.7353 29.9042 47.0535 28.9704 47.0535 27.747C47.0535 26.8132 46.8156 25.9212 46.359 25.2792C45.5661 24.2419 44.5745 23.993 42.9085 23.993H39.3375ZM42.3324 19.0763C43.2658 19.0763 43.7415 19.0763 44.1971 18.932C45.4667 18.5378 46.2596 17.3551 46.2596 15.7375C46.2596 13.8082 45.4266 12.978 44.1971 12.5837C43.6813 12.4394 43.1654 12.3767 42.1347 12.3767H39.2783V19.0763H42.3324ZM60.958 36.1688V12.4593H53.1426V7.68896H74.8413L73.2957 12.4593H66.3726V36.1688H60.958ZM76.5285 36.1688V7.68896H94.1223L92.5747 12.4593H81.903V18.7647H86.2467C89.7575 18.7647 91.5831 19.6577 92.8326 20.7776C93.8242 21.6696 95.4903 23.6396 95.4903 27.5399C95.4903 31.3775 93.764 33.5138 92.3168 34.5919C90.6306 35.8154 88.8652 36.1688 85.2551 36.1688H76.5285ZM85.9697 31.3974C87.5163 31.3974 88.4487 31.0032 89.1031 30.1112C89.4403 29.6762 89.896 28.8878 89.896 27.3946C89.896 25.9212 89.4202 24.885 88.4889 24.1373C87.9328 23.7023 87.1791 23.4535 85.9095 23.4535H81.8839V31.3974H85.9697Z" fill="#0A2973"/>
</svg>
