<svg width="87" height="87" viewBox="0 0 87 87" fill="none" xmlns="http://www.w3.org/2000/svg">
<path d="M43.5 17.7499H30.625C29.4868 17.7499 28.3952 18.2021 27.5903 19.0069C26.7855 19.8118 26.3333 20.9034 26.3333 22.0416V64.9583C26.3333 66.0965 26.7855 67.1881 27.5903 67.9929C28.3952 68.7978 29.4868 69.2499 30.625 69.2499C31.7632 69.2499 32.8548 68.7978 33.6596 67.9929C34.4645 67.1881 34.9166 66.0965 34.9166 64.9583V52.0833H43.5C48.0529 52.0833 52.4193 50.2746 55.6387 47.0553C58.858 43.8359 60.6666 39.4695 60.6666 34.9166C60.6666 30.3637 58.858 25.9973 55.6387 22.7779C52.4193 19.5585 48.0529 17.7499 43.5 17.7499ZM43.5 43.4999H34.9166V26.3333H43.5C45.7764 26.3333 47.9596 27.2376 49.5693 28.8473C51.179 30.4569 52.0833 32.6401 52.0833 34.9166C52.0833 37.193 51.179 39.3762 49.5693 40.9859C47.9596 42.5956 45.7764 43.4999 43.5 43.4999ZM73.5416 0.583252H13.4583C10.0437 0.583252 6.76885 1.93972 4.35431 4.35425C1.93978 6.76878 0.583313 10.0436 0.583313 13.4583V73.5416C0.583313 76.9563 1.93978 80.2311 4.35431 82.6456C6.76885 85.0601 10.0437 86.4166 13.4583 86.4166H73.5416C76.9563 86.4166 80.2311 85.0601 82.6457 82.6456C85.0602 80.2311 86.4166 76.9563 86.4167 73.5416V13.4583C86.4166 10.0436 85.0602 6.76878 82.6457 4.35425C80.2311 1.93972 76.9563 0.583252 73.5416 0.583252ZM77.8333 73.5416C77.8333 74.6798 77.3812 75.7714 76.5763 76.5763C75.7715 77.3811 74.6799 77.8333 73.5416 77.8333H13.4583C12.3201 77.8333 11.2285 77.3811 10.4236 76.5763C9.6188 75.7714 9.16665 74.6798 9.16665 73.5416V13.4583C9.16665 12.32 9.6188 11.2284 10.4236 10.4236C11.2285 9.61874 12.3201 9.16659 13.4583 9.16659H73.5416C74.6799 9.16659 75.7715 9.61874 76.5763 10.4236C77.3812 11.2284 77.8333 12.32 77.8333 13.4583V73.5416Z" fill="url(#paint0_linear)"/>
<defs>
<linearGradient id="paint0_linear" x1="41.2921" y1="-29.3051" x2="145.723" y2="51.6749" gradientUnits="userSpaceOnUse">
<stop stop-color="#74B5B9"/>
<stop offset="0.996946" stop-color="#14D9B5" stop-opacity="0.87"/>
</linearGradient>
</defs>
</svg>
