<svg width="69" height="82" viewBox="0 0 69 82" fill="none" xmlns="http://www.w3.org/2000/svg">
<path d="M67.1633 15.5888C66.86 15.2382 66.4885 14.9547 66.072 14.7561C65.6554 14.5574 65.2029 14.448 64.7427 14.4345C57.5929 14.2453 48.5458 6.50576 42.5643 3.4686C38.8694 1.59837 36.4301 0.36522 34.5982 0.0403737C34.2263 -0.0144951 33.8483 -0.0134323 33.4767 0.0435276C31.6448 0.368374 29.2055 1.60153 25.5138 3.47176C19.5322 6.50576 10.4852 14.2453 3.33534 14.4345C2.8748 14.4487 2.42203 14.5584 2.0051 14.757C1.58817 14.9555 1.21597 15.2387 0.911574 15.5888C0.280624 16.3115 -0.0449136 17.256 0.00499694 18.2191C1.54088 49.8301 12.7407 69.3935 32.3925 80.7631C32.9035 81.0564 33.4705 81.2078 34.0343 81.2078C34.5982 81.2078 35.1652 81.0564 35.6793 80.7631C55.3311 69.3935 66.5278 49.8301 68.0668 18.2191C68.1196 17.2561 67.7949 16.3109 67.1633 15.5888ZM51.5366 28.0213L34.9534 52.7948C34.3583 53.6842 33.4237 54.2739 32.4985 54.2739C31.5701 54.2739 30.5389 53.7598 29.8878 53.1007L18.1988 41.2643C17.8172 40.8765 17.6029 40.3515 17.6029 39.8041C17.6029 39.2567 17.8172 38.7316 18.1988 38.3438L21.0868 35.4139C21.4706 35.0291 21.989 34.8132 22.5292 34.8132C23.0694 34.8132 23.5878 35.0291 23.9717 35.4139L31.5732 43.1093L44.7793 23.3757C45.0849 22.9241 45.5545 22.6133 46.0857 22.511C46.6168 22.4088 47.1664 22.5235 47.6143 22.8301L50.9945 25.1513C51.4411 25.4601 51.7487 25.9353 51.8503 26.4731C51.9519 27.0109 51.8391 27.5675 51.5366 28.0213Z" fill="url(#paint0_linear)"/>
<defs>
<linearGradient id="paint0_linear" x1="32.2851" y1="-28.2777" x2="125.517" y2="32.3238" gradientUnits="userSpaceOnUse">
<stop stop-color="#74B5B9"/>
<stop offset="0.996946" stop-color="#14D9B5" stop-opacity="0.87"/>
</linearGradient>
</defs>
</svg>
