<svg width="81" height="76" viewBox="0 0 81 76" fill="none" xmlns="http://www.w3.org/2000/svg">
<path d="M0.900024 10.7501C0.900024 8.12445 1.94306 5.60635 3.79967 3.74974C5.65628 1.89313 8.17438 0.850098 10.8 0.850098H50.4C53.0257 0.850098 55.5438 1.89313 57.4004 3.74974C59.257 5.60635 60.3 8.12445 60.3 10.7501V15.1754L76.4123 6.11195C76.7886 5.90043 77.2137 5.791 77.6453 5.79454C78.077 5.79808 78.5002 5.91446 78.873 6.13213C79.2458 6.34979 79.5551 6.66117 79.7704 7.03536C79.9856 7.40954 80.0993 7.83352 80.1 8.2652V42.9251C80.0998 43.3575 79.9862 43.7823 79.7707 44.1571C79.5552 44.532 79.2453 44.8439 78.8717 45.0617C78.4982 45.2795 78.0741 45.3956 77.6417 45.3986C77.2094 45.4015 76.7838 45.2911 76.4073 45.0783L60.3 35.9951V40.4501C60.3 43.0757 59.257 45.5938 57.4004 47.4505C55.5438 49.3071 53.0257 50.3501 50.4 50.3501H40.5V55.3001C40.5 60.5514 38.414 65.5876 34.7007 69.3008C30.9875 73.014 25.9513 75.1001 20.7 75.1001H8.32502C7.66861 75.1001 7.03909 74.8393 6.57493 74.3752C6.11078 73.911 5.85002 73.2815 5.85002 72.6251V62.7251C5.85002 62.0687 6.11078 61.4392 6.57493 60.975C7.03909 60.5109 7.66861 60.2501 8.32502 60.2501H18.225C20.1943 60.2501 22.0828 59.4678 23.4753 58.0754C24.8677 56.6829 25.65 54.7943 25.65 52.8251V50.3501H10.8C8.17438 50.3501 5.65628 49.3071 3.79967 47.4505C1.94306 45.5938 0.900024 43.0757 0.900024 40.4501V10.7501ZM30.6 50.3501V52.8251C30.6 56.1072 29.2962 59.2548 26.9755 61.5755C24.6547 63.8963 21.5071 65.2001 18.225 65.2001H10.8V70.1501H20.7C24.6385 70.1501 28.4156 68.5855 31.2006 65.8006C33.9855 63.0157 35.55 59.2386 35.55 55.3001V50.3501H30.6ZM10.8 45.4001H50.4C51.7128 45.4001 52.9719 44.8786 53.9002 43.9503C54.8285 43.022 55.35 41.7629 55.35 40.4501V10.7501C55.35 9.43728 54.8285 8.17823 53.9002 7.24992C52.9719 6.32161 51.7128 5.8001 50.4 5.8001H10.8C9.4872 5.8001 8.22815 6.32161 7.29984 7.24992C6.37154 8.17823 5.85002 9.43728 5.85002 10.7501V40.4501C5.85002 41.7629 6.37154 43.022 7.29984 43.9503C8.22815 44.8786 9.4872 45.4001 10.8 45.4001ZM60.3248 20.8481V30.3224L75.15 38.6879V12.5024L60.3248 20.8431V20.8481Z" fill="url(#paint0_linear)"/>
<defs>
<linearGradient id="paint0_linear" x1="38.4627" y1="-25.0048" x2="130.083" y2="50.7777" gradientUnits="userSpaceOnUse">
<stop stop-color="#74B5B9"/>
<stop offset="0.996946" stop-color="#14D9B5" stop-opacity="0.87"/>
</linearGradient>
</defs>
</svg>
