<svg width="89" height="74" viewBox="0 0 89 74" fill="none" xmlns="http://www.w3.org/2000/svg">
<path d="M57.4792 14.2529C61.5583 14.2529 64.8958 11.046 64.8958 7.12643C64.8958 3.20689 61.5583 0 57.4792 0C53.4 0 50.0625 3.20689 50.0625 7.12643C50.0625 11.046 53.4 14.2529 57.4792 14.2529ZM18.5417 37.4138C8.15833 37.4138 0 45.2528 0 55.2298C0 65.2068 8.15833 73.0459 18.5417 73.0459C28.925 73.0459 37.0833 65.2068 37.0833 55.2298C37.0833 45.2528 28.925 37.4138 18.5417 37.4138ZM18.5417 67.7011C11.4958 67.7011 5.5625 61.9999 5.5625 55.2298C5.5625 48.4597 11.4958 42.7586 18.5417 42.7586C25.5875 42.7586 31.5208 48.4597 31.5208 55.2298C31.5208 61.9999 25.5875 67.7011 18.5417 67.7011ZM40.05 32.0689L48.95 23.5172L51.9167 26.3678C56.7375 31 63.0417 33.8505 70.8292 33.8505V26.7241C65.2667 26.7241 60.8167 24.5862 57.4792 21.3793L50.4333 14.6092C48.5792 13.1839 46.725 12.4713 44.5 12.4713C42.275 12.4713 40.4208 13.1839 39.3083 14.6092L28.925 24.5862C27.4417 26.0115 26.7 27.7931 26.7 29.5747C26.7 31.7126 27.4417 33.4942 28.925 34.5632L40.7917 44.5402V62.3563H48.2083V40.2643L40.05 32.0689ZM70.4583 37.4138C60.075 37.4138 51.9167 45.2528 51.9167 55.2298C51.9167 65.2068 60.075 73.0459 70.4583 73.0459C80.8417 73.0459 89 65.2068 89 55.2298C89 45.2528 80.8417 37.4138 70.4583 37.4138ZM70.4583 67.7011C63.4125 67.7011 57.4792 61.9999 57.4792 55.2298C57.4792 48.4597 63.4125 42.7586 70.4583 42.7586C77.5042 42.7586 83.4375 48.4597 83.4375 55.2298C83.4375 61.9999 77.5042 67.7011 70.4583 67.7011Z" fill="url(#paint0_linear)"/>
<defs>
<linearGradient id="paint0_linear" x1="42.2106" y1="-25.4356" x2="133.826" y2="61.1228" gradientUnits="userSpaceOnUse">
<stop stop-color="#74B5B9"/>
<stop offset="0.996946" stop-color="#14D9B5" stop-opacity="0.87"/>
</linearGradient>
</defs>
</svg>
